<?xml version="1.0" encoding="iso-8859-1"?>
<!-- Generator: Adobe Illustrator 19.0.0, SVG Export Plug-In . SVG Version: 6.00 Build 0)  -->
<svg version="1.1" id="Capa_1" xmlns="http://www.w3.org/2000/svg" xmlns:xlink="http://www.w3.org/1999/xlink" x="0px" y="0px"
	 viewBox="0 0 512 512" style="enable-background:new 0 0 512 512;" xml:space="preserve">
<g>
	<g>
		<path d="M446.313,394.714c18.219-14.056,29.988-36.084,29.988-60.822c0-42.348-34.453-76.801-76.801-76.801
			c-23.25,0-44.104,10.399-58.2,26.774c-9.188-38.584-43.943-67.367-85.3-67.367c-41.356,0-76.112,28.783-85.3,67.367
			c-14.095-16.375-34.949-26.775-58.199-26.775c-42.349,0-76.802,34.453-76.802,76.801c0,24.738,11.768,46.767,29.988,60.822
			C26.96,412.509,0,451.663,0,497v15h512v-15C512,451.663,485.04,412.509,446.313,394.714z M399.5,287.091
			c25.806,0,46.801,20.995,46.801,46.801c0,25.806-20.995,46.801-46.801,46.801c-25.806,0-46.801-20.995-46.801-46.801
			C352.699,308.086,373.694,287.091,399.5,287.091z M326.16,356.709c4.754,15.252,14.157,28.462,26.527,38.005
			c-3.603,1.656-7.103,3.498-10.49,5.511c-10.935-9.75-23.525-17.678-37.293-23.305C313.067,371.414,320.257,364.572,326.16,356.709
			z M256,246.499c31.806,0,57.681,25.875,57.681,57.68s-25.875,57.68-57.681,57.68c-31.805,0-57.68-25.875-57.68-57.68
			S224.195,246.499,256,246.499z M185.841,356.709c5.902,7.863,13.093,14.706,21.256,20.211
			c-13.768,5.628-26.358,13.555-37.293,23.305c-3.387-2.013-6.887-3.855-10.49-5.511
			C171.684,385.171,181.086,371.96,185.841,356.709z M112.501,287.091c25.806,0,46.8,20.995,46.8,46.801
			c0,25.806-20.994,46.801-46.8,46.801c-25.807,0-46.802-20.995-46.802-46.801C65.699,308.086,86.694,287.091,112.501,287.091z
			 M127.21,482H31.366c7.072-38.356,40.763-67.5,81.134-67.5c13.266,0,25.801,3.163,36.917,8.75
			C137.57,440.319,129.715,460.355,127.21,482z M157.463,482c7.257-47.862,48.681-84.664,98.537-84.664
			c49.857,0,91.28,36.801,98.537,84.664H157.463z M384.792,482c-2.505-21.645-10.36-41.681-22.207-58.75
			c11.116-5.586,23.65-8.75,36.916-8.75c40.371,0,74.061,29.144,81.134,67.5H384.792z"/>
	</g>
</g>
<g>
	<g>
		<path d="M257.35,0H21.38v170.365h87.997l75.683,40.622l-0.562-40.622h72.852V0z M227.351,140.365H154.08l0.278,20.095
			l-37.438-20.095H51.38V30h175.971V140.365z"/>
	</g>
</g>
<g>
	<g>
		<rect x="90.32" y="68.66" width="98.08" height="30"/>
	</g>
</g>
<g>
	<g>
		<path d="M291.512,64.249v145.244h59.777l-0.486,35.189l65.561-35.189h74.258V64.249H291.512z M460.621,179.493H408.82
			l-27.316,14.662l0.203-14.662h-60.195V94.249h139.109V179.493z"/>
	</g>
</g>
<g>
	<g>
		<rect x="350.8" y="120.62" width="80.53" height="30"/>
	</g>
</g>
<g>
</g>
<g>
</g>
<g>
</g>
<g>
</g>
<g>
</g>
<g>
</g>
<g>
</g>
<g>
</g>
<g>
</g>
<g>
</g>
<g>
</g>
<g>
</g>
<g>
</g>
<g>
</g>
<g>
</g>
</svg>
