<?xml version="1.0" encoding="iso-8859-1"?>
<!-- Generator: Adobe Illustrator 19.0.0, SVG Export Plug-In . SVG Version: 6.00 Build 0)  -->
<svg version="1.1" id="Capa_1" xmlns="http://www.w3.org/2000/svg" xmlns:xlink="http://www.w3.org/1999/xlink" x="0px" y="0px"
	 viewBox="0 0 512 512" style="enable-background:new 0 0 512 512;" xml:space="preserve">
<g>
	<g>
		<path d="M141.486,311.681c0-15.772,3.206-30.81,8.999-44.497c-11.211-6.409-24.171-10.092-37.983-10.092
			c-42.349,0-76.802,34.453-76.802,76.801c0,24.738,11.768,46.767,29.988,60.822C26.96,412.509,0,451.663,0,497v15h101.017v-14.458
			c0-31.36,9.361-61.594,27.071-87.433c9.138-13.334,20.17-25.044,32.708-34.821C148.372,356.721,141.486,334.675,141.486,311.681z"
			/>
	</g>
</g>
<g>
	<g>
		<path d="M446.313,394.714c18.219-14.056,29.988-36.084,29.988-60.822c0-42.348-34.453-76.801-76.801-76.801
			c-13.812,0-26.772,3.684-37.984,10.092c5.793,13.686,8.999,28.724,8.999,44.497c0,22.994-6.886,45.041-19.31,63.607
			c12.538,9.777,23.569,21.488,32.708,34.821c17.71,25.839,27.071,56.073,27.071,87.433V512H512v-15
			C512,451.663,485.04,412.509,446.313,394.714z"/>
	</g>
</g>
<g>
	<g>
		<path d="M303.139,381.796c22.531-15.196,37.377-40.954,37.377-70.116c0-46.602-37.913-84.515-84.516-84.515
			c-46.602,0-84.515,37.913-84.515,84.515c0,29.161,14.846,54.92,37.377,70.116c-45.617,18.646-77.845,63.499-77.845,115.745V512
			h249.966v-14.458C380.983,445.296,348.755,400.442,303.139,381.796z"/>
	</g>
</g>
<g>
	<g>
		<path d="M257.35,0H21.38v170.365h87.997l75.683,40.622l-0.562-40.622h72.852V0z M188.406,98.657H90.324v-30h98.082V98.657z"/>
	</g>
</g>
<g>
	<g>
		<path d="M291.512,64.249v145.244h59.777l-0.486,35.189l65.561-35.189h74.258V64.249H291.512z M431.331,150.619h-80.528v-30h0
			h80.528V150.619z"/>
	</g>
</g>
<g>
</g>
<g>
</g>
<g>
</g>
<g>
</g>
<g>
</g>
<g>
</g>
<g>
</g>
<g>
</g>
<g>
</g>
<g>
</g>
<g>
</g>
<g>
</g>
<g>
</g>
<g>
</g>
<g>
</g>
</svg>
